<?xml version="1.0" encoding="utf-8"?>
<!-- Generator: Adobe Illustrator 17.0.0, SVG Export Plug-In . SVG Version: 6.00 Build 0)  -->
<!DOCTYPE svg PUBLIC "-//W3C//DTD SVG 1.1//EN" "http://www.w3.org/Graphics/SVG/1.1/DTD/svg11.dtd">
<svg version="1.1" xmlns="http://www.w3.org/2000/svg" xmlns:xlink="http://www.w3.org/1999/xlink" x="0px" y="0px"
	 width="156.672px" height="21.679px" viewBox="0 0 156.672 21.679" enable-background="new 0 0 156.672 21.679"
	 xml:space="preserve">
<g id="Layer_1">
	<g>
		<g>
			<path fill="#231F20" d="M5.795,6.667c3.09,0,5.403,1.562,5.419,5.301l0.04,9.023l-1.849,0.008l-0.401-1.988
				c-0.891,1.293-2.316,2.224-4.418,2.233c-0.009,0-0.019,0-0.029,0c-2.342,0-4.348-1.254-4.362-4.268
				c-0.013-3.027,2.502-4.635,6.369-4.652l2.298-0.01l-0.003-0.617C8.849,9.523,7.487,8.797,5.79,8.797c-0.009,0-0.017,0-0.026,0
				c-1.457,0.006-2.631,0.824-2.933,2.226l-2.076-0.467c0.382-2.384,2.337-3.877,4.999-3.889C5.768,6.667,5.781,6.667,5.795,6.667
				 M4.923,19.113c0.006,0,0.012,0,0.018,0c1.821-0.008,3.946-1.138,3.932-4.333l-0.001-0.336l-2.522,0.011
				c-2.41,0.011-3.751,0.913-3.744,2.511C2.611,18.305,3.448,19.113,4.923,19.113 M5.795,6.472l-0.041,0
				c-2.761,0.012-4.798,1.603-5.191,4.053l-0.029,0.181l0.178,0.04l2.076,0.467l0.192,0.043l0.041-0.192
				c0.274-1.272,1.325-2.067,2.743-2.073c1.925,0,2.892,0.911,2.9,2.707l0.002,0.422L6.563,12.13C2.44,12.148-0.013,13.96,0,16.977
				c0.012,2.794,1.716,4.462,4.556,4.462c1.823-0.008,3.307-0.685,4.342-1.963l0.315,1.561l0.032,0.157l0.16-0.001l1.849-0.008
				l0.195-0.001l-0.001-0.195l-0.04-9.023C11.393,8.475,9.347,6.472,5.795,6.472L5.795,6.472z M4.923,19.113v-0.195
				c-1.344,0-2.118-0.712-2.123-1.954c-0.007-1.483,1.254-2.305,3.55-2.315l2.328-0.01l0.001,0.141
				c0.006,1.402-0.402,2.484-1.214,3.216c-0.654,0.59-1.551,0.917-2.525,0.921L4.923,19.113L4.923,19.113z"/>
		</g>
		<g>
			<path fill="#231F20" d="M40.254,6.74l-4.226,14.142l-2.242,0.01l-2.821-10.721l-2.727,10.745l-2.242,0.01L21.647,6.822
				l2.466-0.011l2.934,10.832l2.727-10.857l2.354-0.01l2.822,10.833l2.839-10.858L40.254,6.74 M41.262,5.986L40.251,5.99
				l-2.466,0.011l-0.576,0.003l-0.146,0.558l-2.112,8.077l-2.098-8.052l-0.147-0.563l-0.582,0.003l-2.354,0.01l-0.582,0.003
				l-0.142,0.565l-2.027,8.07l-2.183-8.058l-0.151-0.556l-0.577,0.003l-2.466,0.011l-1.011,0.004l0.298,0.967l4.349,14.105
				l0.164,0.531l0.556-0.002l2.242-0.01l0.581-0.003l0.143-0.563l2.013-7.933l2.083,7.915l0.148,0.562l0.581-0.003l2.242-0.01
				l0.556-0.002l0.159-0.533l4.226-14.142L41.262,5.986L41.262,5.986z"/>
		</g>
		<g>
			<path fill="#231F20" d="M52.57,0.969c1.005,0,1.76,0.78,1.765,1.786c0.004,0.981-0.749,1.741-1.758,1.745
				c-0.003,0-0.006,0-0.009,0c-1.005,0-1.76-0.752-1.764-1.73c-0.004-1.009,0.749-1.797,1.758-1.801
				C52.565,0.969,52.568,0.969,52.57,0.969 M53.764,6.681l0.062,14.124l-2.354,0.01L51.41,6.691L53.764,6.681 M52.571,0.219h-0.001
				l-0.01,0c-1.411,0.006-2.511,1.128-2.505,2.555c0.006,1.389,1.11,2.477,2.514,2.477c1.423-0.006,2.523-1.104,2.517-2.499
				C55.079,1.332,53.974,0.219,52.571,0.219L52.571,0.219z M54.511,5.928l-0.75,0.003l-2.354,0.01l-0.75,0.003l0.003,0.75
				l0.062,14.124l0.003,0.75l0.75-0.003l2.354-0.01l0.75-0.003l-0.003-0.75L54.514,6.678L54.511,5.928L54.511,5.928z"/>
		</g>
		<g>
			<path fill="#231F20" d="M73.52,6.37c2.562,0,4.127,1.589,4.139,4.382l0.044,9.948l-2.354,0.01l-0.041-9.332
				c-0.008-1.927-0.875-2.876-2.434-2.876c-0.006,0-0.011,0-0.017,0c-2.101,0.009-4.025,2.4-4.008,6.323l0.026,5.913l-2.354,0.01
				L66.459,6.625l2.354-0.01l0.011,2.606c1.029-1.826,2.706-2.842,4.668-2.851C73.501,6.37,73.511,6.37,73.52,6.37 M73.52,5.62
				h-0.002l-0.029,0c-1.486,0.007-2.843,0.533-3.924,1.49l-0.002-0.498l-0.003-0.75l-0.75,0.003l-2.354,0.01l-0.75,0.003l0.003,0.75
				l0.062,14.124l0.003,0.75l0.75-0.003l2.354-0.01l0.75-0.003l-0.003-0.75l-0.026-5.913c-0.016-3.608,1.668-5.562,3.261-5.569
				c0.793,0,1.689,0.242,1.698,2.129l0.041,9.332l0.003,0.75l0.75-0.003l2.354-0.01l0.75-0.003l-0.003-0.75l-0.044-9.948
				C78.395,7.585,76.522,5.62,73.52,5.62L73.52,5.62z"/>
		</g>
		<g>
			<path fill="#231F20" d="M101.801,0.753l0.087,19.84l-2.354,0.01l-0.008-1.738c-0.668,1.04-2.401,1.972-4.111,1.98
				c-0.012,0-0.025,0-0.037,0c-4.123,0-6.254-3.04-6.273-7.259c-0.019-4.232,2.098-7.295,6.246-7.314c0.006,0,0.013,0,0.019,0
				c1.787,0,3.63,1.08,4.108,1.888l-0.032-7.398L101.801,0.753 M95.612,18.716c0.007,0,0.013,0,0.019,0
				c2.578-0.011,4.082-2.148,4.068-5.174c-0.013-3.019-1.528-5.138-4.093-5.138c-0.007,0-0.014,0-0.02,0
				c-2.494,0.011-4.082,2.147-4.069,5.174C91.53,16.596,93.129,18.716,95.612,18.716 M102.548,0l-0.75,0.003l-2.354,0.01
				l-0.75,0.003l0.003,0.75l0.025,5.736c-0.932-0.561-2.158-0.978-3.351-0.978c-4.357,0.019-7.037,3.11-7.015,8.067
				c0.022,4.938,2.713,8.005,7.023,8.005c1.189-0.005,2.434-0.4,3.405-1.019l0,0.03l0.003,0.75l0.75-0.003l2.354-0.01l0.75-0.003
				l-0.003-0.75l-0.087-19.84L102.548,0L102.548,0z M95.612,18.716v-0.75c-2.02,0-3.334-1.724-3.345-4.392
				c-0.012-2.677,1.292-4.412,3.322-4.421c2.468,0,3.351,2.269,3.36,4.392c0.009,2.13-0.858,4.41-3.322,4.421L95.612,18.716
				L95.612,18.716z"/>
		</g>
		<g>
			<path fill="#231F20" d="M120.245,6.165c4.211,0,6.763,3.427,6.779,7.256c0.017,3.839-2.518,7.297-6.75,7.316
				c-0.011,0-0.023,0-0.034,0c-4.211,0-6.763-3.428-6.779-7.256c-0.017-3.839,2.519-7.297,6.75-7.316
				C120.223,6.165,120.234,6.165,120.245,6.165 M120.244,18.608c0.007,0,0.014,0,0.021,0c2.887-0.013,4.36-2.569,4.349-5.175
				c-0.011-2.6-1.5-5.137-4.373-5.137c-0.007,0-0.014,0-0.021,0c-2.886,0.013-4.36,2.569-4.349,5.175
				C115.883,16.07,117.373,18.608,120.244,18.608 M120.245,5.415h-0.002l-0.036,0c-4.294,0.019-7.516,3.488-7.496,8.069
				c0.02,4.563,3.257,8.003,7.529,8.003c4.331-0.019,7.554-3.488,7.534-8.069C127.755,8.856,124.518,5.415,120.245,5.415
				L120.245,5.415z M120.244,18.608v-0.75c-2.476,0-3.614-2.276-3.623-4.39c-0.009-2.122,1.114-4.411,3.602-4.422
				c2.494,0,3.632,2.276,3.641,4.39c0.009,2.122-1.114,4.411-3.602,4.422L120.244,18.608L120.244,18.608z"/>
		</g>
		<g>
			<path fill="#231F20" d="M155.664,6.234l-4.225,14.142l-2.242,0.01l-2.821-10.721l-2.727,10.745l-2.242,0.01l-4.349-14.105
				l2.466-0.011l2.934,10.832l2.727-10.857l2.354-0.01l2.822,10.833l2.839-10.858L155.664,6.234 M156.672,5.48l-1.011,0.004
				l-2.466,0.011l-0.576,0.003l-0.146,0.558l-2.112,8.077l-2.097-8.052l-0.147-0.563l-0.582,0.003l-2.354,0.01l-0.582,0.003
				l-0.142,0.565l-2.027,8.07l-2.183-8.059l-0.151-0.556l-0.576,0.003l-2.466,0.011l-1.011,0.004l0.298,0.967l4.349,14.105
				l0.164,0.531l0.556-0.002l2.242-0.01l0.581-0.003l0.143-0.563l2.013-7.933l2.083,7.915l0.148,0.562l0.581-0.003l2.242-0.01
				l0.556-0.002l0.159-0.533l4.225-14.142L156.672,5.48L156.672,5.48z"/>
		</g>
	</g>
</g>
<g id="Layer_2">
</g>
</svg>
